# Made in Blockbench 3.9.3
mtllib model.mtl
o Top
v 0.4375 0.3125 0.5
v 0.4375 0.3125 -0.5
v 0.4375 0.1875 0.5
v 0.4375 0.1875 -0.5
v -0.4375 0.3125 -0.5
v -0.4375 0.3125 0.5
v -0.4375 0.1875 -0.5
v -0.4375 0.1875 0.5
vt 0.125 1
vt 0 1
vt 0.125 0
vt 0 1
vt 0 0
vt 0.125 0
vt 0.875 0
vt 1 0
vt 0.875 1
vt 1 0
vt 1 1
vt 0.875 1
vt 0.9375 0
vt 0.9375 1
vt 0.0625 0
vt 0.9375 1
vt 0.0625 1
vt 0.0625 0
vt 0.0625 1
vt 0.0625 0
vt 0.9375 1
vt 0.0625 0
vt 0.9375 0
vt 0.9375 1
vn 1 0 0
vn 1 0 0
vn 1 0 0
vn 1 0 0
vn 1 0 0
vn 1 0 0
vn -1 0 0
vn -1 0 0
vn -1 0 0
vn -1 0 0
vn -1 0 0
vn -1 0 0
vn 0 1 0
vn 0 1 0
vn 0 1 0
vn 0 1 0
vn 0 1 0
vn 0 1 0
vn 0 -1 0
vn 0 -1 0
vn 0 -1 0
vn 0 -1 0
vn 0 -1 0
vn 0 -1 0
usemtl m_0
f 1/1/1 3/2/2 2/3/3
f 3/4/4 4/5/5 2/6/6
usemtl m_0
f 5/7/7 7/8/8 6/9/9
f 7/10/10 8/11/11 6/12/12
usemtl m_0
f 5/13/13 6/14/14 2/15/15
f 6/16/16 1/17/17 2/18/18
usemtl m_0
f 8/19/19 7/20/20 3/21/21
f 7/22/22 4/23/23 3/24/24
o Top
v 0.3125 0.1875 0.5
v 0.3125 0.1875 -0.5
v 0.3125 0.125 0.5
v 0.3125 0.125 -0.5
v -0.3125 0.1875 -0.5
v -0.3125 0.1875 0.5
v -0.3125 0.125 -0.5
v -0.3125 0.125 0.5
vt 0.8125 1
vt 0.75 1
vt 0.8125 0
vt 0.75 1
vt 0.75 0
vt 0.8125 0
vt 0.1875 0
vt 0.25 0
vt 0.1875 1
vt 0.25 0
vt 0.25 1
vt 0.1875 1
vt 0.1875 1
vt 0.1875 0
vt 0.8125 1
vt 0.1875 0
vt 0.8125 0
vt 0.8125 1
vn 1 0 0
vn 1 0 0
vn 1 0 0
vn 1 0 0
vn 1 0 0
vn 1 0 0
vn -1 0 0
vn -1 0 0
vn -1 0 0
vn -1 0 0
vn -1 0 0
vn -1 0 0
vn 0 -1 0
vn 0 -1 0
vn 0 -1 0
vn 0 -1 0
vn 0 -1 0
vn 0 -1 0
usemtl m_0
f 9/25/25 11/26/26 10/27/27
f 11/28/28 12/29/29 10/30/30
usemtl m_0
f 13/31/31 15/32/32 14/33/33
f 15/34/34 16/35/35 14/36/36
usemtl m_0
f 16/37/37 15/38/38 11/39/39
f 15/40/40 12/41/41 11/42/42
o Casing
v 0.5 0.1875 0.5
v 0.5 0.1875 -0.5
v 0.5 -0.5 0.5
v 0.5 -0.5 -0.5
v -0.5 0.1875 -0.5
v -0.5 0.1875 0.5
v -0.5 -0.5 -0.5
v -0.5 -0.5 0.5
vt 0 0.5
vt 0 0.15625
vt 0.5 0.5
vt 0 0.15625
vt 0.5 0.15625
vt 0.5 0.5
vt 0 0.5
vt 0 0.15625
vt 0.5 0.5
vt 0 0.15625
vt 0.5 0.15625
vt 0.5 0.5
vt 0 0.5
vt 0.5 0.5
vt 0 1
vt 0.5 0.5
vt 0.5 1
vt 0 1
vt 0.5 0.5
vt 1 0.5
vt 0.5 1
vt 1 0.5
vt 1 1
vt 0.5 1
vt 0 0.5
vt 0 0.15625
vt 0.5 0.5
vt 0 0.15625
vt 0.5 0.15625
vt 0.5 0.5
vt 0 0.5
vt 0 0.15625
vt 0.5 0.5
vt 0 0.15625
vt 0.5 0.15625
vt 0.5 0.5
vn 1 0 0
vn 1 0 0
vn 1 0 0
vn 1 0 0
vn 1 0 0
vn 1 0 0
vn -1 0 0
vn -1 0 0
vn -1 0 0
vn -1 0 0
vn -1 0 0
vn -1 0 0
vn 0 1 0
vn 0 1 0
vn 0 1 0
vn 0 1 0
vn 0 1 0
vn 0 1 0
vn 0 -1 0
vn 0 -1 0
vn 0 -1 0
vn 0 -1 0
vn 0 -1 0
vn 0 -1 0
vn 0 0 1
vn 0 0 1
vn 0 0 1
vn 0 0 1
vn 0 0 1
vn 0 0 1
vn 0 0 -1
vn 0 0 -1
vn 0 0 -1
vn 0 0 -1
vn 0 0 -1
vn 0 0 -1
usemtl m_4
f 17/43/43 19/44/44 18/45/45
f 19/46/46 20/47/47 18/48/48
usemtl m_4
f 21/49/49 23/50/50 22/51/51
f 23/52/52 24/53/53 22/54/54
usemtl m_4
f 21/55/55 22/56/56 18/57/57
f 22/58/58 17/59/59 18/60/60
usemtl m_4
f 24/61/61 23/62/62 19/63/63
f 23/64/64 20/65/65 19/66/66
usemtl m_4
f 22/67/67 24/68/68 17/69/69
f 24/70/70 19/71/71 17/72/72
usemtl m_4
f 18/73/73 20/74/74 21/75/75
f 20/76/76 23/77/77 21/78/78
