# Made in Blockbench 3.9.3
mtllib model.mtl
o Top
v 0.5 0.375 0.5
v 0.5 0.375 -0.5
v 0.5 0.25 0.5
v 0.5 0.25 -0.5
v -0.5 0.375 -0.5
v -0.5 0.375 0.5
v -0.5 0.25 -0.5
v -0.5 0.25 0.5
vt 0 1
vt 0 0.875
vt 1 1
vt 0 0.875
vt 1 0.875
vt 1 1
vt 0 1
vt 0 0.875
vt 1 1
vt 0 0.875
vt 1 0.875
vt 1 1
vt 0 0
vt 1 0
vt 0 1
vt 1 0
vt 1 1
vt 0 1
vt 1 1
vt 0 1
vt 1 0
vt 0 1
vt 0 0
vt 1 0
vt 0 1
vt 0 0.875
vt 1 1
vt 0 0.875
vt 1 0.875
vt 1 1
vt 0 1
vt 0 0.875
vt 1 1
vt 0 0.875
vt 1 0.875
vt 1 1
vn 1 0 0
vn 1 0 0
vn 1 0 0
vn 1 0 0
vn 1 0 0
vn 1 0 0
vn -1 0 0
vn -1 0 0
vn -1 0 0
vn -1 0 0
vn -1 0 0
vn -1 0 0
vn 0 1 0
vn 0 1 0
vn 0 1 0
vn 0 1 0
vn 0 1 0
vn 0 1 0
vn 0 -1 0
vn 0 -1 0
vn 0 -1 0
vn 0 -1 0
vn 0 -1 0
vn 0 -1 0
vn 0 0 1
vn 0 0 1
vn 0 0 1
vn 0 0 1
vn 0 0 1
vn 0 0 1
vn 0 0 -1
vn 0 0 -1
vn 0 0 -1
vn 0 0 -1
vn 0 0 -1
vn 0 0 -1
usemtl m_gearbox
f 1/1/1 3/2/2 2/3/3
f 3/4/4 4/5/5 2/6/6
usemtl m_gearbox
f 5/7/7 7/8/8 6/9/9
f 7/10/10 8/11/11 6/12/12
usemtl m_mechanical_press_top
f 5/13/13 6/14/14 2/15/15
f 6/16/16 1/17/17 2/18/18
usemtl m_gearbox
f 8/19/19 7/20/20 3/21/21
f 7/22/22 4/23/23 3/24/24
usemtl m_8
f 6/25/25 8/26/26 1/27/27
f 8/28/28 3/29/29 1/30/30
usemtl m_8
f 2/31/31 4/32/32 5/33/33
f 4/34/34 7/35/35 5/36/36
o Core
v 0.4375 0.25 0.375
v 0.4375 0.25 -0.375
v 0.4375 -0.375 0.375
v 0.4375 -0.375 -0.375
v -0.4375 0.25 -0.375
v -0.4375 0.25 0.375
v -0.4375 -0.375 -0.375
v -0.4375 -0.375 0.375
vt 0.125 0.875
vt 0.125 0.25
vt 0.875 0.875
vt 0.125 0.25
vt 0.875 0.25
vt 0.875 0.875
vt 0.125 0.875
vt 0.125 0.25
vt 0.875 0.875
vt 0.125 0.25
vt 0.875 0.25
vt 0.875 0.875
vt 0.875 0.9375
vt 0.125 0.9375
vt 0.875 0.0625
vt 0.125 0.9375
vt 0.125 0.0625
vt 0.875 0.0625
vn 1 0 0
vn 1 0 0
vn 1 0 0
vn 1 0 0
vn 1 0 0
vn 1 0 0
vn -1 0 0
vn -1 0 0
vn -1 0 0
vn -1 0 0
vn -1 0 0
vn -1 0 0
vn 0 -1 0
vn 0 -1 0
vn 0 -1 0
vn 0 -1 0
vn 0 -1 0
vn 0 -1 0
usemtl m_gearbox
f 9/37/37 11/38/38 10/39/39
f 11/40/40 12/41/41 10/42/42
usemtl m_gearbox
f 13/43/43 15/44/44 14/45/45
f 15/46/46 16/47/47 14/48/48
usemtl m_mechanical_press_bottom
f 16/49/49 15/50/50 11/51/51
f 15/52/52 12/53/53 11/54/54
o Side
v 0.5 0.25 -0.375
v 0.5 0.25 -0.5
v 0.5 -0.5 -0.375
v 0.5 -0.5 -0.5
v -0.5 0.25 -0.5
v -0.5 0.25 -0.375
v -0.5 -0.5 -0.5
v -0.5 -0.5 -0.375
vt 0.875 0.875
vt 0.875 0.125
vt 1 0.875
vt 0.875 0.125
vt 1 0.125
vt 1 0.875
vt 0 0.875
vt 0 0.125
vt 0.125 0.875
vt 0 0.125
vt 0.125 0.125
vt 0.125 0.875
vt 0.125 1
vt 0 1
vt 0.125 0
vt 0 1
vt 0 0
vt 0.125 0
vt 0 0.875
vt 0 0.125
vt 1 0.875
vt 0 0.125
vt 1 0.125
vt 1 0.875
vt 0 0.875
vt 0 0.125
vt 1 0.875
vt 0 0.125
vt 1 0.125
vt 1 0.875
vn 1 0 0
vn 1 0 0
vn 1 0 0
vn 1 0 0
vn 1 0 0
vn 1 0 0
vn -1 0 0
vn -1 0 0
vn -1 0 0
vn -1 0 0
vn -1 0 0
vn -1 0 0
vn 0 -1 0
vn 0 -1 0
vn 0 -1 0
vn 0 -1 0
vn 0 -1 0
vn 0 -1 0
vn 0 0 1
vn 0 0 1
vn 0 0 1
vn 0 0 1
vn 0 0 1
vn 0 0 1
vn 0 0 -1
vn 0 0 -1
vn 0 0 -1
vn 0 0 -1
vn 0 0 -1
vn 0 0 -1
usemtl m_gearbox_top
f 17/55/55 19/56/56 18/57/57
f 19/58/58 20/59/59 18/60/60
usemtl m_gearbox_top
f 21/61/61 23/62/62 22/63/63
f 23/64/64 24/65/65 22/66/66
usemtl m_gearbox_top
f 24/67/67 23/68/68 19/69/69
f 23/70/70 20/71/71 19/72/72
usemtl m_8
f 22/73/73 24/74/74 17/75/75
f 24/76/76 19/77/77 17/78/78
usemtl m_8
f 18/79/79 20/80/80 21/81/81
f 20/82/82 23/83/83 21/84/84
o Side
v 0.5 0.25 0.5
v 0.5 0.25 0.375
v 0.5 -0.5 0.5
v 0.5 -0.5 0.375
v -0.5 0.25 0.375
v -0.5 0.25 0.5
v -0.5 -0.5 0.375
v -0.5 -0.5 0.5
vt 0 0.875
vt 0 0.125
vt 0.125 0.875
vt 0 0.125
vt 0.125 0.125
vt 0.125 0.875
vt 0.875 0.875
vt 0.875 0.125
vt 1 0.875
vt 0.875 0.125
vt 1 0.125
vt 1 0.875
vt 1 1
vt 0.875 1
vt 1 0
vt 0.875 1
vt 0.875 0
vt 1 0
vt 0 0.875
vt 0 0.125
vt 1 0.875
vt 0 0.125
vt 1 0.125
vt 1 0.875
vt 0 0.875
vt 0 0.125
vt 1 0.875
vt 0 0.125
vt 1 0.125
vt 1 0.875
vn 1 0 0
vn 1 0 0
vn 1 0 0
vn 1 0 0
vn 1 0 0
vn 1 0 0
vn -1 0 0
vn -1 0 0
vn -1 0 0
vn -1 0 0
vn -1 0 0
vn -1 0 0
vn 0 -1 0
vn 0 -1 0
vn 0 -1 0
vn 0 -1 0
vn 0 -1 0
vn 0 -1 0
vn 0 0 1
vn 0 0 1
vn 0 0 1
vn 0 0 1
vn 0 0 1
vn 0 0 1
vn 0 0 -1
vn 0 0 -1
vn 0 0 -1
vn 0 0 -1
vn 0 0 -1
vn 0 0 -1
usemtl m_gearbox_top
f 25/85/85 27/86/86 26/87/87
f 27/88/88 28/89/89 26/90/90
usemtl m_gearbox_top
f 29/91/91 31/92/92 30/93/93
f 31/94/94 32/95/95 30/96/96
usemtl m_gearbox_top
f 32/97/97 31/98/98 27/99/99
f 31/100/100 28/101/101 27/102/102
usemtl m_8
f 30/103/103 32/104/104 25/105/105
f 32/106/106 27/107/107 25/108/108
usemtl m_8
f 26/109/109 28/110/110 29/111/111
f 28/112/112 31/113/113 29/114/114
o Pole1Core
v 0.125 0 0.125
v 0.125 0 -0.125
v 0.125 -0.625 0.125
v 0.125 -0.625 -0.125
v -0.125 0 -0.125
v -0.125 0 0.125
v -0.125 -0.625 -0.125
v -0.125 -0.625 0.125
vt 0.375 0.625
vt 0.375 0
vt 0.625 0.625
vt 0.375 0
vt 0.625 0
vt 0.625 0.625
vt 0.375 0.625
vt 0.375 0
vt 0.625 0.625
vt 0.375 0
vt 0.625 0
vt 0.625 0.625
vn 0 0 1
vn 0 0 1
vn 0 0 1
vn 0 0 1
vn 0 0 1
vn 0 0 1
vn 0 0 -1
vn 0 0 -1
vn 0 0 -1
vn 0 0 -1
vn 0 0 -1
vn 0 0 -1
usemtl m_mechanical_press_pole
f 38/115/115 40/116/116 33/117/117
f 40/118/118 35/119/119 33/120/120
usemtl m_mechanical_press_pole
f 34/121/121 36/122/122 37/123/123
f 36/124/124 39/125/125 37/126/126
o Pole2Core
v 0.125 0.8125 0.125
v 0.125 0.8125 -0.125
v 0.125 0 0.125
v 0.125 0 -0.125
v -0.125 0.8125 -0.125
v -0.125 0.8125 0.125
v -0.125 0 -0.125
v -0.125 0 0.125
vt 0.6875 0.6875
vt 0.9375 0.6875
vt 0.6875 0.9375
vt 0.9375 0.6875
vt 0.9375 0.9375
vt 0.6875 0.9375
vt 0.375 1
vt 0.375 0.1875
vt 0.625 1
vt 0.375 0.1875
vt 0.625 0.1875
vt 0.625 1
vt 0.375 1
vt 0.375 0.1875
vt 0.625 1
vt 0.375 0.1875
vt 0.625 0.1875
vt 0.625 1
vn 0 1 0
vn 0 1 0
vn 0 1 0
vn 0 1 0
vn 0 1 0
vn 0 1 0
vn 0 0 1
vn 0 0 1
vn 0 0 1
vn 0 0 1
vn 0 0 1
vn 0 0 1
vn 0 0 -1
vn 0 0 -1
vn 0 0 -1
vn 0 0 -1
vn 0 0 -1
vn 0 0 -1
usemtl m_mechanical_press_pole
f 45/127/127 46/128/128 42/129/129
f 46/130/130 41/131/131 42/132/132
usemtl m_mechanical_press_pole
f 46/133/133 48/134/134 41/135/135
f 48/136/136 43/137/137 41/138/138
usemtl m_mechanical_press_pole
f 42/139/139 44/140/140 45/141/141
f 44/142/142 47/143/143 45/144/144
o Pole1Side
v -0.125 0 0.1875
v -0.125 0 -0.1875
v -0.125 -0.625 0.1875
v -0.125 -0.625 -0.1875
v -0.1875 0 -0.1875
v -0.1875 0 0.1875
v -0.1875 -0.625 -0.1875
v -0.1875 -0.625 0.1875
vt 0 0.625
vt 0 0
vt 0.375 0.625
vt 0 0
vt 0.375 0
vt 0.375 0.625
vt 0 0.625
vt 0 0
vt 0.375 0.625
vt 0 0
vt 0.375 0
vt 0.375 0.625
vt 0.3125 0.625
vt 0.3125 0
vt 0.375 0.625
vt 0.3125 0
vt 0.375 0
vt 0.375 0.625
vt 0 0.625
vt 0 0
vt 0.0625 0.625
vt 0 0
vt 0.0625 0
vt 0.0625 0.625
vn 1 0 0
vn 1 0 0
vn 1 0 0
vn 1 0 0
vn 1 0 0
vn 1 0 0
vn -1 0 0
vn -1 0 0
vn -1 0 0
vn -1 0 0
vn -1 0 0
vn -1 0 0
vn 0 0 1
vn 0 0 1
vn 0 0 1
vn 0 0 1
vn 0 0 1
vn 0 0 1
vn 0 0 -1
vn 0 0 -1
vn 0 0 -1
vn 0 0 -1
vn 0 0 -1
vn 0 0 -1
usemtl m_mechanical_press_pole
f 49/145/145 51/146/146 50/147/147
f 51/148/148 52/149/149 50/150/150
usemtl m_mechanical_press_pole
f 53/151/151 55/152/152 54/153/153
f 55/154/154 56/155/155 54/156/156
usemtl m_mechanical_press_pole
f 54/157/157 56/158/158 49/159/159
f 56/160/160 51/161/161 49/162/162
usemtl m_mechanical_press_pole
f 50/163/163 52/164/164 53/165/165
f 52/166/166 55/167/167 53/168/168
o Pole1Side
v 0.1875 0 0.1875
v 0.1875 0 -0.1875
v 0.1875 -0.625 0.1875
v 0.1875 -0.625 -0.1875
v 0.125 0 -0.1875
v 0.125 0 0.1875
v 0.125 -0.625 -0.1875
v 0.125 -0.625 0.1875
vt 0 0.625
vt 0 0
vt 0.375 0.625
vt 0 0
vt 0.375 0
vt 0.375 0.625
vt 0 0.625
vt 0 0
vt 0.375 0.625
vt 0 0
vt 0.375 0
vt 0.375 0.625
vt 0.3125 0.625
vt 0.3125 0
vt 0.375 0.625
vt 0.3125 0
vt 0.375 0
vt 0.375 0.625
vt 0 0.625
vt 0 0
vt 0.0625 0.625
vt 0 0
vt 0.0625 0
vt 0.0625 0.625
vn 1 0 0
vn 1 0 0
vn 1 0 0
vn 1 0 0
vn 1 0 0
vn 1 0 0
vn -1 0 0
vn -1 0 0
vn -1 0 0
vn -1 0 0
vn -1 0 0
vn -1 0 0
vn 0 0 1
vn 0 0 1
vn 0 0 1
vn 0 0 1
vn 0 0 1
vn 0 0 1
vn 0 0 -1
vn 0 0 -1
vn 0 0 -1
vn 0 0 -1
vn 0 0 -1
vn 0 0 -1
usemtl m_mechanical_press_pole
f 57/169/169 59/170/170 58/171/171
f 59/172/172 60/173/173 58/174/174
usemtl m_mechanical_press_pole
f 61/175/175 63/176/176 62/177/177
f 63/178/178 64/179/179 62/180/180
usemtl m_mechanical_press_pole
f 62/181/181 64/182/182 57/183/183
f 64/184/184 59/185/185 57/186/186
usemtl m_mechanical_press_pole
f 58/187/187 60/188/188 61/189/189
f 60/190/190 63/191/191 61/192/192
o Pole2Side
v 0.1875 0.8125 0.1875
v 0.1875 0.8125 -0.1875
v 0.1875 0 0.1875
v 0.1875 0 -0.1875
v 0.125 0.8125 -0.1875
v 0.125 0.8125 0.1875
v 0.125 0 -0.1875
v 0.125 0 0.1875
vt 0 1
vt 0 0.1875
vt 0.375 1
vt 0 0.1875
vt 0.375 0.1875
vt 0.375 1
vt 0 1
vt 0 0.1875
vt 0.375 1
vt 0 0.1875
vt 0.375 0.1875
vt 0.375 1
vt 0.625 0.9375
vt 1 0.9375
vt 0.625 1
vt 1 0.9375
vt 1 1
vt 0.625 1
vt 0.3125 1
vt 0.3125 0.1875
vt 0.375 1
vt 0.3125 0.1875
vt 0.375 0.1875
vt 0.375 1
vt 0 1
vt 0 0.1875
vt 0.0625 1
vt 0 0.1875
vt 0.0625 0.1875
vt 0.0625 1
vn 1 0 0
vn 1 0 0
vn 1 0 0
vn 1 0 0
vn 1 0 0
vn 1 0 0
vn -1 0 0
vn -1 0 0
vn -1 0 0
vn -1 0 0
vn -1 0 0
vn -1 0 0
vn 0 1 0
vn 0 1 0
vn 0 1 0
vn 0 1 0
vn 0 1 0
vn 0 1 0
vn 0 0 1
vn 0 0 1
vn 0 0 1
vn 0 0 1
vn 0 0 1
vn 0 0 1
vn 0 0 -1
vn 0 0 -1
vn 0 0 -1
vn 0 0 -1
vn 0 0 -1
vn 0 0 -1
usemtl m_mechanical_press_pole
f 65/193/193 67/194/194 66/195/195
f 67/196/196 68/197/197 66/198/198
usemtl m_mechanical_press_pole
f 69/199/199 71/200/200 70/201/201
f 71/202/202 72/203/203 70/204/204
usemtl m_mechanical_press_pole
f 69/205/205 70/206/206 66/207/207
f 70/208/208 65/209/209 66/210/210
usemtl m_mechanical_press_pole
f 70/211/211 72/212/212 65/213/213
f 72/214/214 67/215/215 65/216/216
usemtl m_mechanical_press_pole
f 66/217/217 68/218/218 69/219/219
f 68/220/220 71/221/221 69/222/222
o Pole2Side
v -0.125 0.8125 0.1875
v -0.125 0.8125 -0.1875
v -0.125 0 0.1875
v -0.125 0 -0.1875
v -0.1875 0.8125 -0.1875
v -0.1875 0.8125 0.1875
v -0.1875 0 -0.1875
v -0.1875 0 0.1875
vt 0 1
vt 0 0.1875
vt 0.375 1
vt 0 0.1875
vt 0.375 0.1875
vt 0.375 1
vt 0 1
vt 0 0.1875
vt 0.375 1
vt 0 0.1875
vt 0.375 0.1875
vt 0.375 1
vt 0.625 0.625
vt 1 0.625
vt 0.625 0.6875
vt 1 0.625
vt 1 0.6875
vt 0.625 0.6875
vt 0.3125 1
vt 0.3125 0.1875
vt 0.375 1
vt 0.3125 0.1875
vt 0.375 0.1875
vt 0.375 1
vt 0 1
vt 0 0.1875
vt 0.0625 1
vt 0 0.1875
vt 0.0625 0.1875
vt 0.0625 1
vn 1 0 0
vn 1 0 0
vn 1 0 0
vn 1 0 0
vn 1 0 0
vn 1 0 0
vn -1 0 0
vn -1 0 0
vn -1 0 0
vn -1 0 0
vn -1 0 0
vn -1 0 0
vn 0 1 0
vn 0 1 0
vn 0 1 0
vn 0 1 0
vn 0 1 0
vn 0 1 0
vn 0 0 1
vn 0 0 1
vn 0 0 1
vn 0 0 1
vn 0 0 1
vn 0 0 1
vn 0 0 -1
vn 0 0 -1
vn 0 0 -1
vn 0 0 -1
vn 0 0 -1
vn 0 0 -1
usemtl m_mechanical_press_pole
f 73/223/223 75/224/224 74/225/225
f 75/226/226 76/227/227 74/228/228
usemtl m_mechanical_press_pole
f 77/229/229 79/230/230 78/231/231
f 79/232/232 80/233/233 78/234/234
usemtl m_mechanical_press_pole
f 77/235/235 78/236/236 74/237/237
f 78/238/238 73/239/239 74/240/240
usemtl m_mechanical_press_pole
f 78/241/241 80/242/242 73/243/243
f 80/244/244 75/245/245 73/246/246
usemtl m_mechanical_press_pole
f 74/247/247 76/248/248 77/249/249
f 76/250/250 79/251/251 77/252/252
o Head
v 0.3125 -0.625 0.3125
v 0.3125 -0.625 -0.3125
v 0.3125 -0.875 0.3125
v 0.3125 -0.875 -0.3125
v -0.3125 -0.625 -0.3125
v -0.3125 -0.625 0.3125
v -0.3125 -0.875 -0.3125
v -0.3125 -0.875 0.3125
vt 0.0625 1
vt 0.0625 0.75
vt 0.6875 1
vt 0.0625 0.75
vt 0.6875 0.75
vt 0.6875 1
vt 0.0625 1
vt 0.0625 0.75
vt 0.6875 1
vt 0.0625 0.75
vt 0.6875 0.75
vt 0.6875 1
vt 0.0625 0.0625
vt 0.6875 0.0625
vt 0.0625 0.6875
vt 0.6875 0.0625
vt 0.6875 0.6875
vt 0.0625 0.6875
vt 0.6875 0.6875
vt 0.0625 0.6875
vt 0.6875 0.0625
vt 0.0625 0.6875
vt 0.0625 0.0625
vt 0.6875 0.0625
vt 0.0625 1
vt 0.0625 0.75
vt 0.6875 1
vt 0.0625 0.75
vt 0.6875 0.75
vt 0.6875 1
vt 0.0625 1
vt 0.0625 0.75
vt 0.6875 1
vt 0.0625 0.75
vt 0.6875 0.75
vt 0.6875 1
vn 1 0 0
vn 1 0 0
vn 1 0 0
vn 1 0 0
vn 1 0 0
vn 1 0 0
vn -1 0 0
vn -1 0 0
vn -1 0 0
vn -1 0 0
vn -1 0 0
vn -1 0 0
vn 0 1 0
vn 0 1 0
vn 0 1 0
vn 0 1 0
vn 0 1 0
vn 0 1 0
vn 0 -1 0
vn 0 -1 0
vn 0 -1 0
vn 0 -1 0
vn 0 -1 0
vn 0 -1 0
vn 0 0 1
vn 0 0 1
vn 0 0 1
vn 0 0 1
vn 0 0 1
vn 0 0 1
vn 0 0 -1
vn 0 0 -1
vn 0 0 -1
vn 0 0 -1
vn 0 0 -1
vn 0 0 -1
usemtl m_mechanical_press_head
f 81/253/253 83/254/254 82/255/255
f 83/256/256 84/257/257 82/258/258
usemtl m_mechanical_press_head
f 85/259/259 87/260/260 86/261/261
f 87/262/262 88/263/263 86/264/264
usemtl m_mechanical_press_head
f 85/265/265 86/266/266 82/267/267
f 86/268/268 81/269/269 82/270/270
usemtl m_mechanical_press_head
f 88/271/271 87/272/272 83/273/273
f 87/274/274 84/275/275 83/276/276
usemtl m_mechanical_press_head
f 86/277/277 88/278/278 81/279/279
f 88/280/280 83/281/281 81/282/282
usemtl m_mechanical_press_head
f 82/283/283 84/284/284 85/285/285
f 84/286/286 87/287/287 85/288/288
o Axis
v 0.5 0 0.125
v 0.5 0 -0.125
v 0.5 -0.25 0.125
v 0.5 -0.25 -0.125
v -0.5 0 -0.125
v -0.5 0 0.125
v -0.5 -0.25 -0.125
v -0.5 -0.25 0.125
vt 0.375 0.625
vt 0.375 0.375
vt 0.625 0.625
vt 0.375 0.375
vt 0.625 0.375
vt 0.625 0.625
vt 0.625 0.375
vt 0.625 0.625
vt 0.375 0.375
vt 0.625 0.625
vt 0.375 0.625
vt 0.375 0.375
vt 0.625 1
vt 0.375 1
vt 0.625 0
vt 0.375 1
vt 0.375 0
vt 0.625 0
vt 0.625 1
vt 0.375 1
vt 0.625 0
vt 0.375 1
vt 0.375 0
vt 0.625 0
vt 0.625 1
vt 0.375 1
vt 0.625 0
vt 0.375 1
vt 0.375 0
vt 0.625 0
vt 0.375 0
vt 0.625 0
vt 0.375 1
vt 0.625 0
vt 0.625 1
vt 0.375 1
vn 1 0 0
vn 1 0 0
vn 1 0 0
vn 1 0 0
vn 1 0 0
vn 1 0 0
vn -1 0 0
vn -1 0 0
vn -1 0 0
vn -1 0 0
vn -1 0 0
vn -1 0 0
vn 0 1 0
vn 0 1 0
vn 0 1 0
vn 0 1 0
vn 0 1 0
vn 0 1 0
vn 0 -1 0
vn 0 -1 0
vn 0 -1 0
vn 0 -1 0
vn 0 -1 0
vn 0 -1 0
vn 0 0 1
vn 0 0 1
vn 0 0 1
vn 0 0 1
vn 0 0 1
vn 0 0 1
vn 0 0 -1
vn 0 0 -1
vn 0 0 -1
vn 0 0 -1
vn 0 0 -1
vn 0 0 -1
usemtl m_1
f 89/289/289 91/290/290 90/291/291
f 91/292/292 92/293/293 90/294/294
usemtl m_1
f 93/295/295 95/296/296 94/297/297
f 95/298/298 96/299/299 94/300/300
usemtl m_0
f 93/301/301 94/302/302 90/303/303
f 94/304/304 89/305/305 90/306/306
usemtl m_0
f 96/307/307 95/308/308 91/309/309
f 95/310/310 92/311/311 91/312/312
usemtl m_0
f 94/313/313 96/314/314 89/315/315
f 96/316/316 91/317/317 89/318/318
usemtl m_0
f 90/319/319 92/320/320 93/321/321
f 92/322/322 95/323/323 93/324/324
